<svg xmlns="http://www.w3.org/2000/svg" width="75" height="75" viewBox="0 0 75 75" fill="none">
	<rect width="75" height="75" rx="10" fill="#0BBBEF" />
	<path fill-rule="evenodd" clip-rule="evenodd"
		d="M37.2857 40.5714C45.1755 40.5714 51.5714 34.1755 51.5714 26.2857C51.5714 18.3959 45.1755 12 37.2857 12C29.3959 12 23 18.3959 23 26.2857C23 34.1755 29.3959 40.5714 37.2857 40.5714ZM21 47.7143C16.5817 47.7143 13 51.296 13 55.7143V59C13 60.6569 14.3431 62 16 62H58.5714C60.2283 62 61.5714 60.6569 61.5714 59V55.7143C61.5714 51.296 57.9897 47.7143 53.5714 47.7143H21Z" fill="white" />
</svg>