<svg width="24" height="27" viewBox="0 0 24 27" fill="none" xmlns="http://www.w3.org/2000/svg">
	<path fill-rule="evenodd" clip-rule="evenodd"
		d="M0.17627 4.11765C0.17627 1.90851 1.96713 0.117645 4.17627 0.117645H11.6174C13.8266 0.117645 15.6174 1.90851 15.6174 4.11765V12.4706H7.98235C7.65098 12.4706 7.38235 12.7392 7.38235 13.0706V13.9294C7.38235 14.2608 7.65098 14.5294 7.98235 14.5294H15.6174V22.8824C15.6174 25.0915 13.8266 26.8824 11.6174 26.8824H4.17627C1.96713 26.8824 0.17627 25.0915 0.17627 22.8824V4.11765ZM19.9851 14.5294H15.6174V12.4706H20.2502L18.1134 10.3338C17.8722 10.0926 17.8722 9.70153 18.1134 9.46032L18.6957 8.878C18.9369 8.63679 19.328 8.63679 19.5692 8.878L23.4999 12.8087L23.5033 12.8103L23.627 12.934C23.8682 13.1753 23.8682 13.5663 23.627 13.8075L23.5033 13.9313L23.4991 13.9271L19.569 17.8571C19.3278 18.0983 18.9368 18.0983 18.6955 17.8571L18.1132 17.2748C17.872 17.0336 17.872 16.6425 18.1132 16.4013L19.9851 14.5294Z"
		fill="white" />
</svg>